# xmcd
#
# Track frame offsets: 
#        183
#        14390
#        28170
#        40543
#        54858
#        67408
#        79835
#        91208
#        103328
#        115678
#        127098
#        138223
#        149493
#        163315
#        175030
#        186608
#        198593
#        211990
#        223848
#        235750
#        249333
#        263955
#        275343
#        288003
#        300315
#
# Disc length: 4169 seconds
#
# Revision: 0
# Processed by: cddbd v1.4PL0 Copyright (c) Steve Scherf et al.
# Submitted via: ExactAudioCopy v0.95a3
#
DISCID=75104719
DTITLE=Jordan, Louis - Jordan, Louis
DYEAR=1900
DGENRE=Blues
TTITLE0=Toodle-oo on Down
TTITLE1=So Good
TTITLE2=Away from You
TTITLE3=Honey in the Bee Ball
TTITLE4=Barnacle Bill the Sailor
TTITLE5=Flat Face
TTITLE6=Keep a Knockin'
TTITLE7=Sam Jones Done Snagged His Britches
TTITLE8=Swingin' in a Cocoanut Tree
TTITLE9=Doug the Jitterbug
TTITLE10=At the Swing Cat's Ball
TTITLE11=Jake, What a Snake
TTITLE12=Honeysuckle Rose
TTITLE13='Fore Day Blues
TTITLE14=But I'll be Back
TTITLE15=You ain't Nowhere
TTITLE16=You're My Meat
TTITLE17=June Tenth Jamboree
TTITLE18=You Run Your Mouth and I'll Run My Business Baby
TTITLE19=I'm Alabama Bound
TTITLE20=Hard Lovin' Blues
TTITLE21=You've Got to Go When the Wagon Comes
TTITLE22=Lovie Joe
TTITLE23=Somebody Done Hoodooed the Hoodo Man
TTITLE24=Bounce the Ball
EXTD=
EXTT0=
EXTT1=
EXTT2=
EXTT3=
EXTT4=
EXTT5=
EXTT6=
EXTT7=
EXTT8=
EXTT9=
EXTT10=
EXTT11=
EXTT12=
EXTT13=
EXTT14=
EXTT15=
EXTT16=
EXTT17=
EXTT18=
EXTT19=
EXTT20=
EXTT21=
EXTT22=
EXTT23=
EXTT24=
PLAYORDER=
